<svg id="Capa_1" data-name="Capa 1" xmlns="http://www.w3.org/2000/svg" viewBox="0 0 40 40"><defs><style>.cls-1{fill:#120d31;}.cls-2{fill:#ff6b35;}</style></defs><rect class="cls-1" x="0.18" y="0.03" width="39.82" height="39.82"/><path class="cls-2" d="M18,31.37H11.54V7.75L18,7.81V10.9H14.88V28.28H18Z"/><path class="cls-2" d="M21.26,19.07a3.18,3.18,0,0,0,.84-.43,3,3,0,0,0,.67-.64c.42-.45.51-1.92.51-3V11.84a6.72,6.72,0,0,1,.3-2.39,2.2,2.2,0,0,1,1-1.11,4.94,4.94,0,0,1,1.49-.46,14,14,0,0,1,2.24-.15l.48,0h.52v3h-.51a2.27,2.27,0,0,0-1.63.44A2.65,2.65,0,0,0,26.76,13v3a4.18,4.18,0,0,1-.57,2.48,3.39,3.39,0,0,1-2.05,1.05,3.38,3.38,0,0,1,2.06,1A4.11,4.11,0,0,1,26.76,23v3a2.69,2.69,0,0,0,.42,1.79,2.25,2.25,0,0,0,1.62.43h.53v3l-.52,0h-.5A13.78,13.78,0,0,1,26.08,31a5,5,0,0,1-1.48-.46,2.15,2.15,0,0,1-1-1.09,6.68,6.68,0,0,1-.3-2.39V23.94a6.32,6.32,0,0,0-.56-2.77,2.35,2.35,0,0,0-.75-1,2.46,2.46,0,0,0-.41-.23c-.08,0-.6-.23-.76-.28l-.15,0-.51-.18Z"/><path class="cls-2" d="M17.37,17.89h.94c.94,0,1.54-.22,1.78-.67a3.14,3.14,0,0,0,.36-1.53,2.8,2.8,0,0,0-.36-1.42,1.68,1.68,0,0,0-1.56-.62H17.37Z"/><path class="cls-2" d="M17.37,25.72H18.8c1.34,0,2-.81,2-2.43a2.82,2.82,0,0,0-.51-1.91,1.93,1.93,0,0,0-1.51-.55H17.37Z"/></svg>