<svg id="Capa_1" data-name="Capa 1" xmlns="http://www.w3.org/2000/svg" viewBox="0 0 40 40"><defs><style>.cls-1{fill:#120d31;}.cls-2{fill:#ff6b35;}</style></defs><rect class="cls-1" width="40" height="40"/><path class="cls-2" d="M17.31,19.46V14.23h1.57a1.39,1.39,0,0,1,1,.31,1.27,1.27,0,0,1,.33,1,1.76,1.76,0,0,1-.16.81.67.67,0,0,1-.49.34.74.74,0,0,1,.57.36,1.48,1.48,0,0,1,.21.83A1.82,1.82,0,0,1,20,19.07a1.37,1.37,0,0,1-1.08.39Zm1-3.11h.33a.63.63,0,0,0,.5-.16.88.88,0,0,0,.14-.59.7.7,0,0,0-.14-.52.72.72,0,0,0-.53-.14h-.3Zm0,2.36h.4a.66.66,0,0,0,.53-.18,1.06,1.06,0,0,0,.16-.65,1,1,0,0,0-.17-.65.85.85,0,0,0-.63-.18h-.29Z"/><path class="cls-2" d="M22.79,18.11h.85a.28.28,0,0,0,0,.08v.07a1.35,1.35,0,0,1-.32,1,1.4,1.4,0,0,1-1,.31,1.78,1.78,0,0,1-.61-.09,1,1,0,0,1-.41-.28,1.35,1.35,0,0,1-.27-.58,6.66,6.66,0,0,1-.08-1.24,5.89,5.89,0,0,1,.07-1,1.26,1.26,0,0,1,.23-.51,1.11,1.11,0,0,1,.45-.3,1.8,1.8,0,0,1,.65-.11,1.64,1.64,0,0,1,.62.11,1.14,1.14,0,0,1,.44.34,1.16,1.16,0,0,1,.21.49,5.44,5.44,0,0,1,.06,1v.3H21.88v.09s0,.09,0,.16a2.07,2.07,0,0,0,.11.79.36.36,0,0,0,.35.22.38.38,0,0,0,.35-.18A1.23,1.23,0,0,0,22.79,18.11ZM21.87,17h.89v-.17a1.18,1.18,0,0,0-.1-.56.39.39,0,0,0-.35-.15.37.37,0,0,0-.34.16,1,1,0,0,0-.1.55Z"/><path class="cls-2" d="M26.84,17.92s0,0,0,.08v.14a1.55,1.55,0,0,1-.31,1.07,1.2,1.2,0,0,1-1,.35,1.14,1.14,0,0,1-1-.44,3.21,3.21,0,0,1-.29-1.63,3.26,3.26,0,0,1,.29-1.63,1.17,1.17,0,0,1,1-.44,1.23,1.23,0,0,1,1,.33,1.35,1.35,0,0,1,.31,1v.14H26v-.09a1.11,1.11,0,0,0-.09-.51.37.37,0,0,0-.6,0,1.05,1.05,0,0,0-.09.51v1.35a1.32,1.32,0,0,0,.08.57.37.37,0,0,0,.63,0A1.73,1.73,0,0,0,26,18v-.09Z"/><path class="cls-2" d="M27.52,19.46V14.23h.91V15.9a.86.86,0,0,1,.33-.35,1,1,0,0,1,.48-.13.82.82,0,0,1,.65.25,1,1,0,0,1,.23.7v3.09h-.88V16.82a.94.94,0,0,0-.08-.49.3.3,0,0,0-.27-.13.4.4,0,0,0-.36.17,1.15,1.15,0,0,0-.1.58v2.51Z"/><path class="cls-2" d="M32.63,18.11h.85s0,0,0,.08v.07a1.35,1.35,0,0,1-.32,1,1.4,1.4,0,0,1-1,.31,1.78,1.78,0,0,1-.61-.09,1,1,0,0,1-.41-.28,1.35,1.35,0,0,1-.27-.58,6.66,6.66,0,0,1-.08-1.24,5.89,5.89,0,0,1,.07-1,1.26,1.26,0,0,1,.23-.51,1.11,1.11,0,0,1,.45-.3,1.8,1.8,0,0,1,.65-.11,1.64,1.64,0,0,1,.62.11,1.14,1.14,0,0,1,.44.34,1.16,1.16,0,0,1,.21.49,5.44,5.44,0,0,1,.06,1v.3H31.73a.28.28,0,0,0,0,.09s0,.09,0,.16a2.07,2.07,0,0,0,.11.79.36.36,0,0,0,.35.22.38.38,0,0,0,.35-.18A1.23,1.23,0,0,0,32.63,18.11ZM31.71,17h.89v-.17a1.18,1.18,0,0,0-.1-.56.39.39,0,0,0-.35-.15.37.37,0,0,0-.34.16,1,1,0,0,0-.1.55Z"/><path class="cls-2" d="M34.21,19.46V15.53h.87v.64a1.6,1.6,0,0,1,.4-.57.83.83,0,0,1,.52-.17v1.1h-.23a.59.59,0,0,0-.63.63v2.31Z"/><path class="cls-2" d="M19.9,26l-.08-.57a1.06,1.06,0,0,1-.41.54,1.41,1.41,0,0,1-.71.16,1.22,1.22,0,0,1-1.16-.62,5.43,5.43,0,0,1-.33-2.28A8,8,0,0,1,17.29,22a1.88,1.88,0,0,1,.25-.72,1.18,1.18,0,0,1,.54-.47,2,2,0,0,1,.83-.15,1.43,1.43,0,0,1,1.64,1.64v.13h-.91v0a1.16,1.16,0,0,0-.17-.71A.61.61,0,0,0,19,21.4a.58.58,0,0,0-.58.32,5.27,5.27,0,0,0-.16,1.73,4.7,4.7,0,0,0,.15,1.48.55.55,0,0,0,.54.38.59.59,0,0,0,.55-.27,1.74,1.74,0,0,0,.17-.89V24h-.68v-.84h1.61V26Z"/><path class="cls-2" d="M21.37,26V22.05h.87v.64a1.52,1.52,0,0,1,.4-.56.76.76,0,0,1,.51-.18v1.11h-.22a.63.63,0,0,0-.47.18.64.64,0,0,0-.17.46V26Z"/><path class="cls-2" d="M23.59,24a3,3,0,0,1,.31-1.63A1.21,1.21,0,0,1,25,22a1.22,1.22,0,0,1,1.08.44A3,3,0,0,1,26.36,24a3,3,0,0,1-.31,1.63,1.22,1.22,0,0,1-1.08.44,1.21,1.21,0,0,1-1.07-.44A3,3,0,0,1,23.59,24Zm.93,0v.09a3.93,3.93,0,0,0,.09,1.12.37.37,0,0,0,.36.2.35.35,0,0,0,.36-.19,2.8,2.8,0,0,0,.1-1v-.38a2.71,2.71,0,0,0-.1-1,.43.43,0,0,0-.71,0,2.48,2.48,0,0,0-.1.88Z"/><path class="cls-2" d="M29.62,22.05V26h-.9v-.39a1,1,0,0,1-.34.37.86.86,0,0,1-.48.13.84.84,0,0,1-.65-.24,1,1,0,0,1-.23-.71V22.05h.88v2.57a1.14,1.14,0,0,0,.09.54.32.32,0,0,0,.3.15.34.34,0,0,0,.32-.17,1.28,1.28,0,0,0,.09-.58V22.05Z"/><path class="cls-2" d="M30.4,27.3V22.05h.86v.41a.85.85,0,0,1,.31-.38.88.88,0,0,1,.49-.13.82.82,0,0,1,.8.45A3.71,3.71,0,0,1,33.1,24a4.08,4.08,0,0,1-.23,1.64.8.8,0,0,1-.79.45,1,1,0,0,1-.47-.11.81.81,0,0,1-.3-.33V27.3Zm.88-3.45a4.6,4.6,0,0,0,.1,1.21.37.37,0,0,0,.38.26.31.31,0,0,0,.32-.22A3.86,3.86,0,0,0,32.17,24a3.82,3.82,0,0,0-.09-1.08.31.31,0,0,0-.32-.23.38.38,0,0,0-.38.21A2.88,2.88,0,0,0,31.28,23.85Z"/><path class="cls-2" d="M7.83,27.17H3.78V12.4l4.05,0v1.94h-2V25.23h2Z"/><path class="cls-2" d="M9.86,19.47a1.77,1.77,0,0,0,.53-.27,2.11,2.11,0,0,0,.42-.39,3.8,3.8,0,0,0,.32-1.89V15a4.32,4.32,0,0,1,.18-1.49,1.45,1.45,0,0,1,.64-.7,3.1,3.1,0,0,1,.93-.28,8,8,0,0,1,1.41-.1h.62v1.87h-.32a1.42,1.42,0,0,0-1,.27,1.67,1.67,0,0,0-.27,1.13v1.86A2.66,2.66,0,0,1,13,19.07a2.13,2.13,0,0,1-1.29.66,2.12,2.12,0,0,1,1.29.64,2.62,2.62,0,0,1,.35,1.55v1.87a1.72,1.72,0,0,0,.26,1.12,1.42,1.42,0,0,0,1,.27h.34V27h-.64A8.89,8.89,0,0,1,12.88,27a3.09,3.09,0,0,1-.93-.29,1.32,1.32,0,0,1-.64-.68,4.32,4.32,0,0,1-.18-1.49v-2a3.82,3.82,0,0,0-.36-1.73,1.41,1.41,0,0,0-.47-.61.84.84,0,0,0-.25-.15l-.48-.17-.09,0-.32-.11Z"/><path class="cls-2" d="M7.42,18.74H8q.88,0,1.11-.42a2,2,0,0,0,.23-1,1.76,1.76,0,0,0-.23-.89c-.15-.26-.48-.39-1-.39H7.42Z"/><path class="cls-2" d="M7.42,23.63h.9c.84,0,1.26-.5,1.26-1.52a1.77,1.77,0,0,0-.31-1.19,1.23,1.23,0,0,0-.95-.35h-.9Z"/></svg>